<?xml version="1.0" encoding="utf-8"?>
<!-- Generator: Adobe Illustrator 23.1.0, SVG Export Plug-In . SVG Version: 6.00 Build 0)  -->
<svg version="1.1" id="Layer_1" xmlns="http://www.w3.org/2000/svg" xmlns:xlink="http://www.w3.org/1999/xlink" x="0px" y="0px"
	 viewBox="400 250 400 300" style="enable-background:new 0 0 600 600;" xml:space="preserve">
<style type="text/css">
	.st0{fill:#FFFFFF;}
	.st1{fill-rule:evenodd;clip-rule:evenodd;fill:#C9E3F7;}
	.st2{fill-rule:evenodd;clip-rule:evenodd;fill:#AED5F3;}
</style>
<g>
	<path class="st1" d="M699.18,355.55l-19.11,11.05l55.24,32.06l-58.96,32.74l22.62,13.04l40.83-13.82l19.24,61.11l-11.57,2.71
		L698,506.02l-9.94-42.5l-21.94-12.65l0.93,59.24l-55.9-25.62l0.02,23.6l32.2,28.28l-43.28,47.19l-8.11-8.64l-34.77-37.04
		l31.98-29.99l-0.02-22.3l-60.23,31.78l2.8-65.04l-19.73,11.4l-8.39,42l-62.57-13.9l3.43-11.34l14.7-48.64l42.01,12.71l22.77-13.16
		l-51.02-32.68l50.57-30.11l-22.56-13.01l-40.72,13.78l-19.24-61.11l11.57-2.71l49.45-11.59l9.97,42.62l21.52,12.41l-1.16-63.4
		l56.71,32.68l-0.02-26.22l-32.39-28.45l43.28-47.19l8.11,8.64l34.77,37.04L611,291.93l0.02,25.83l59.36-36.12l-1.59,66.04
		l19.12-11.05l8.46-42.36l62.57,13.9l-3.43,11.34l-14.7,48.64L699.18,355.55L699.18,355.55z M485.55,320.47l-16.43,3.85l5.35,16.98
		l14.78-5L485.55,320.47L485.55,320.47z M473.91,459.37l-4.88,16.17l17.36,3.86l3.06-15.32L473.91,459.37L473.91,459.37z
		 M588.33,538.88l11.56,12.32l12.06-13.15l-11.74-10.31L588.33,538.88L588.33,538.88z M714.45,479.53l16.43-3.85l-5.35-16.98
		l-14.79,5L714.45,479.53L714.45,479.53z M726.09,340.63l4.88-16.17l-17.36-3.86l-3.06,15.32L726.09,340.63L726.09,340.63z
		 M611.67,261.12l-11.56-12.32l-12.06,13.14l11.74,10.31L611.67,261.12L611.67,261.12z M658.09,379.3l-18,10.4
		c0.85,3.3,1.3,6.75,1.3,10.3c0,3.61-0.47,7.12-1.35,10.47l14.06,8.11l36.62-20.33L658.09,379.3L658.09,379.3z M629.11,370.62
		l17.37-10.04l0.94-39.19l-36.39,22.14l0.01,16.58C617.96,362.03,624.15,365.7,629.11,370.62L629.11,370.62z M589.06,343.68
		l-34.04-19.62l0.69,37.77l15.2,8.77c4.99-4.94,11.22-8.61,18.16-10.52L589.06,343.68L589.06,343.68z M545.29,381.19l-30.53,18.18
		L545.41,419l14.57-8.42c-0.9-3.38-1.38-6.93-1.38-10.58c0-3.58,0.46-7.06,1.32-10.38L545.29,381.19L545.29,381.19z M554.33,439.28
		l-1.75,40.73l36.58-19.3l-0.02-20.76c-6.88-1.88-13.06-5.5-18.04-10.36L554.33,439.28L554.33,439.28z M611.13,460.3l33.39,15.3
		l-0.59-37.52l-14.92-8.6c-4.94,4.86-11.07,8.49-17.9,10.4L611.13,460.3L611.13,460.3z M613.67,386.29
		c-3.47-3.47-8.3-5.62-13.67-5.62c-5.37,0-10.2,2.15-13.67,5.62l-0.04,0.04c-3.47,3.47-5.62,8.3-5.62,13.67
		c0,5.37,2.15,10.2,5.62,13.67l0.04,0.04c3.47,3.47,8.3,5.62,13.67,5.62c5.37,0,10.2-2.15,13.67-5.62l0.04-0.04
		c3.47-3.47,5.62-8.3,5.62-13.67c0-5.37-2.15-10.2-5.62-13.67L613.67,386.29z"/>
	<path class="st2" d="M699.18,355.55l-19.11,11.05l55.24,32.06l-58.96,32.74l22.62,13.04l40.83-13.82l19.24,61.11l-11.57,2.71
		L698,506.02l-9.94-42.5l-21.94-12.65l0.93,59.24l-55.9-25.62l0.02,23.6l32.2,28.28l-43.28,47.19l-0.18-0.19v-32.21l12.04-13.12
		l-11.74-10.31l-0.3,0.28V419.33H600c5.37,0,10.2-2.15,13.67-5.62l0.04-0.04c3.47-3.47,5.62-8.3,5.62-13.67
		c0-5.37-2.15-10.2-5.62-13.67l-0.04-0.04c-3.47-3.47-8.3-5.62-13.67-5.62h-0.09V272.14l11.75-11.02l-11.56-12.32l-0.19,0.21v-32.59
		l8.11,8.64l34.77,37.04L611,291.93l0.02,25.83l59.36-36.12l-1.59,66.04l19.12-11.05l8.46-42.36l62.57,13.9l-3.43,11.34l-14.7,48.64
		L699.18,355.55L699.18,355.55z M714.45,479.53l16.43-3.85l-5.35-16.98l-14.79,5L714.45,479.53L714.45,479.53z M726.09,340.63
		l4.88-16.17l-17.36-3.86l-3.06,15.32L726.09,340.63L726.09,340.63z M658.09,379.3l-18,10.4c0.85,3.3,1.3,6.75,1.3,10.3
		c0,3.61-0.47,7.12-1.35,10.47l14.06,8.11l36.62-20.33L658.09,379.3L658.09,379.3z M629.11,370.62l17.37-10.04l0.94-39.19
		l-36.39,22.14l0.01,16.58C617.96,362.03,624.15,365.7,629.11,370.62L629.11,370.62z M611.13,460.3l33.39,15.3l-0.59-37.52
		l-14.92-8.6c-4.94,4.86-11.07,8.49-17.9,10.4L611.13,460.3z"/>
</g>
</svg>
